<svg id="visual" viewBox="0 0 960 540" width="960" height="540" xmlns="http://www.w3.org/2000/svg" xmlns:xlink="http://www.w3.org/1999/xlink" version="1.1"><rect width="960" height="540" fill="#022b54"></rect><g><g transform="translate(708 175)"><path d="M33.2 -9.6C38 3.9 33.3 21.6 22.2 29.5C11 37.3 -6.6 35.3 -19.3 26.2C-31.9 17 -39.7 0.8 -35.7 -11.7C-31.6 -24.1 -15.8 -32.8 -0.8 -32.6C14.2 -32.3 28.5 -23.1 33.2 -9.6Z" fill="#0ab7b3"></path></g><g transform="translate(64 308)"><path d="M16.6 -5.4C18.7 1 15.6 9.1 9.3 14C2.9 18.9 -6.7 20.6 -12.9 16.4C-19.2 12.2 -22.1 2 -19.4 -5.3C-16.7 -12.6 -8.4 -17.1 -0.5 -16.9C7.3 -16.7 14.5 -11.9 16.6 -5.4Z" fill="#0ab7b3"></path></g><g transform="translate(307 357)"><path d="M30.3 -9.4C33.9 1.1 27.7 15.3 17 22.9C6.4 30.5 -8.6 31.5 -17.9 24.7C-27.1 17.9 -30.7 3.4 -26.8 -7.6C-22.8 -18.7 -11.4 -26.3 1 -26.6C13.4 -26.9 26.8 -20 30.3 -9.4Z" fill="#0ab7b3"></path></g><g transform="translate(406 121)"><path d="M24 -8.4C27.5 3.1 24.4 16.1 16 22.2C7.7 28.4 -5.9 27.5 -14.5 21C-23.1 14.5 -26.7 2.3 -23.5 -8.8C-20.2 -19.8 -10.1 -29.8 0.1 -29.8C10.2 -29.9 20.5 -19.9 24 -8.4Z" fill="#0ab7b3"></path></g><g transform="translate(956 41)"><path d="M22.8 -7.4C25.7 1.6 21.6 12.9 13.8 18.3C6.1 23.8 -5.4 23.5 -12.5 18.1C-19.6 12.7 -22.4 2.3 -19.6 -6.6C-16.8 -15.4 -8.4 -22.6 0.8 -22.9C9.9 -23.1 19.9 -16.4 22.8 -7.4Z" fill="#0ab7b3"></path></g><g transform="translate(909 468)"><path d="M20 -5.7C23 2.8 20.6 13.9 13.4 19.4C6.1 24.9 -5.9 24.7 -13.5 19.1C-21.2 13.4 -24.5 2.2 -21.5 -6.3C-18.5 -14.7 -9.3 -20.4 -0.4 -20.3C8.5 -20.1 16.9 -14.2 20 -5.7Z" fill="#0ab7b3"></path></g><g transform="translate(526 300)"><path d="M27.9 -9.3C31.7 2.5 27.2 16.9 17.1 24.4C7.1 31.9 -8.5 32.5 -17.8 25.5C-27.1 18.6 -30.1 3.9 -26.1 -8.3C-22.1 -20.4 -11 -30.1 0.5 -30.3C12.1 -30.5 24.2 -21.1 27.9 -9.3Z" fill="#0ab7b3"></path></g><g transform="translate(790 84)"><path d="M18 -6.1C20.7 2.6 18.6 12.6 12.3 17.2C6.1 21.8 -4.3 20.9 -11.2 15.8C-18.2 10.7 -21.7 1.2 -19.3 -7C-16.8 -15.2 -8.4 -22.3 -0.4 -22.1C7.6 -22 15.3 -14.7 18 -6.1Z" fill="#0ab7b3"></path></g><g transform="translate(262 60)"><path d="M20.4 -6.4C23 1.5 19.4 11.6 12.2 16.9C4.9 22.2 -5.9 22.7 -12.5 17.8C-19 12.9 -21.2 2.6 -18.4 -5.5C-15.6 -13.6 -7.8 -19.7 0.5 -19.8C8.9 -20 17.8 -14.3 20.4 -6.4Z" fill="#0ab7b3"></path></g><g transform="translate(158 82)"><path d="M16.9 -5.6C19.5 2.5 17.6 12 11.6 16.5C5.6 21.1 -4.5 20.6 -11 15.7C-17.5 10.9 -20.4 1.7 -17.9 -6.2C-15.5 -14 -7.7 -20.5 -0.3 -20.4C7.2 -20.3 14.3 -13.7 16.9 -5.6Z" fill="#0ab7b3"></path></g><g transform="translate(719 362)"><path d="M24.8 -8.3C27.9 1.6 23.3 13.7 14.6 20.1C5.8 26.5 -7.1 27.1 -15.6 21C-24 15 -28 2.3 -24.6 -7.9C-21.3 -18 -10.6 -25.7 0.1 -25.8C10.8 -25.8 21.6 -18.2 24.8 -8.3Z" fill="#0ab7b3"></path></g><g transform="translate(187 475)"><path d="M16.3 -4.9C18.5 1.6 16 10.1 10 14.7C4 19.2 -5.5 19.9 -11.7 15.6C-17.8 11.2 -20.7 1.8 -18.2 -5.1C-15.7 -12 -7.8 -16.3 -0.4 -16.2C7 -16.1 14 -11.4 16.3 -4.9Z" fill="#0ab7b3"></path></g><g transform="translate(32 202)"><path d="M30.4 -10.2C34.6 3 29.8 18.7 19.4 26.1C9 33.5 -7 32.6 -17.5 24.8C-27.9 17 -32.9 2.4 -29 -10.3C-25.2 -23.1 -12.6 -33.8 0.3 -33.9C13.1 -34 26.2 -23.4 30.4 -10.2Z" fill="#0ab7b3"></path></g><g transform="translate(412 462)"><path d="M26.4 -9.3C29.7 1.8 25 14.9 15.4 22C5.8 29.2 -8.6 30.5 -17.4 24.1C-26.2 17.7 -29.3 3.6 -25.5 -8.2C-21.6 -19.9 -10.8 -29.3 0.3 -29.4C11.5 -29.5 23 -20.3 26.4 -9.3Z" fill="#0ab7b3"></path></g><g transform="translate(548 512)"><path d="M33.9 -10.1C38.5 3.1 33 20.5 21.5 28.7C10 36.8 -7.6 35.7 -18.8 27.3C-30.1 18.8 -35 2.9 -30.8 -9.8C-26.6 -22.4 -13.3 -31.8 0.7 -32.1C14.7 -32.3 29.3 -23.3 33.9 -10.1Z" fill="#0ab7b3"></path></g><g transform="translate(59 513)"><path d="M24.1 -7.1C27.4 2.3 23.6 14.8 14.9 21.3C6.2 27.8 -7.3 28.3 -16.2 21.9C-25 15.6 -29.1 2.4 -25.6 -7.3C-22.1 -17 -11 -23.2 -0.3 -23.1C10.4 -22.9 20.8 -16.5 24.1 -7.1Z" fill="#0ab7b3"></path></g><g transform="translate(890 223)"><path d="M30.3 -9.4C34.7 3.6 30.5 19.9 20.3 27.1C10.2 34.2 -5.9 32.3 -15.8 24.5C-25.6 16.7 -29.2 3 -25.5 -9.1C-21.8 -21.1 -10.9 -31.6 1 -32C13 -32.3 25.9 -22.5 30.3 -9.4Z" fill="#0ab7b3"></path></g><g transform="translate(405 311)"><path d="M32.3 -10.3C35.9 0.6 28.7 15.1 17.9 22.4C7.1 29.7 -7.3 29.8 -18.1 22.5C-29 15.2 -36.3 0.5 -32.7 -10.3C-29 -21.2 -14.5 -28.3 -0.1 -28.3C14.4 -28.2 28.7 -21.1 32.3 -10.3Z" fill="#0ab7b3"></path></g></g></svg>