<svg id="visual" viewBox="0 0 960 540" width="960" height="540" xmlns="http://www.w3.org/2000/svg" xmlns:xlink="http://www.w3.org/1999/xlink" version="1.1"><rect x="0" y="0" width="960" height="540" fill="#0ab7b3"></rect><path d="M0 359L22.8 361C45.7 363 91.3 367 137 366.5C182.7 366 228.3 361 274 360.5C319.7 360 365.3 364 411.2 358.3C457 352.7 503 337.3 548.8 342C594.7 346.7 640.3 371.3 686 384.5C731.7 397.7 777.3 399.3 823 399.7C868.7 400 914.3 399 937.2 398.5L960 398L960 541L937.2 541C914.3 541 868.7 541 823 541C777.3 541 731.7 541 686 541C640.3 541 594.7 541 548.8 541C503 541 457 541 411.2 541C365.3 541 319.7 541 274 541C228.3 541 182.7 541 137 541C91.3 541 45.7 541 22.8 541L0 541Z" fill="#fffffe"></path><path d="M0 427L22.8 421.3C45.7 415.7 91.3 404.3 137 400.3C182.7 396.3 228.3 399.7 274 396.3C319.7 393 365.3 383 411.2 386.3C457 389.7 503 406.3 548.8 404.2C594.7 402 640.3 381 686 370.8C731.7 360.7 777.3 361.3 823 368.3C868.7 375.3 914.3 388.7 937.2 395.3L960 402L960 541L937.2 541C914.3 541 868.7 541 823 541C777.3 541 731.7 541 686 541C640.3 541 594.7 541 548.8 541C503 541 457 541 411.2 541C365.3 541 319.7 541 274 541C228.3 541 182.7 541 137 541C91.3 541 45.7 541 22.8 541L0 541Z" fill="#bac8be"></path><path d="M0 409L22.8 408.5C45.7 408 91.3 407 137 408.5C182.7 410 228.3 414 274 420.5C319.7 427 365.3 436 411.2 432.8C457 429.7 503 414.3 548.8 409.3C594.7 404.3 640.3 409.7 686 415.8C731.7 422 777.3 429 823 429.2C868.7 429.3 914.3 422.7 937.2 419.3L960 416L960 541L937.2 541C914.3 541 868.7 541 823 541C777.3 541 731.7 541 686 541C640.3 541 594.7 541 548.8 541C503 541 457 541 411.2 541C365.3 541 319.7 541 274 541C228.3 541 182.7 541 137 541C91.3 541 45.7 541 22.8 541L0 541Z" fill="#6c9593"></path><path d="M0 470L22.8 468.8C45.7 467.7 91.3 465.3 137 462.2C182.7 459 228.3 455 274 456.7C319.7 458.3 365.3 465.7 411.2 468.8C457 472 503 471 548.8 472C594.7 473 640.3 476 686 478.7C731.7 481.3 777.3 483.7 823 479.8C868.7 476 914.3 466 937.2 461L960 456L960 541L937.2 541C914.3 541 868.7 541 823 541C777.3 541 731.7 541 686 541C640.3 541 594.7 541 548.8 541C503 541 457 541 411.2 541C365.3 541 319.7 541 274 541C228.3 541 182.7 541 137 541C91.3 541 45.7 541 22.8 541L0 541Z" fill="#226177"></path><path d="M0 484L22.8 486.2C45.7 488.3 91.3 492.7 137 496.5C182.7 500.3 228.3 503.7 274 499.7C319.7 495.7 365.3 484.3 411.2 482.8C457 481.3 503 489.7 548.8 490.5C594.7 491.3 640.3 484.7 686 480.5C731.7 476.3 777.3 474.7 823 478.7C868.7 482.7 914.3 492.3 937.2 497.2L960 502L960 541L937.2 541C914.3 541 868.7 541 823 541C777.3 541 731.7 541 686 541C640.3 541 594.7 541 548.8 541C503 541 457 541 411.2 541C365.3 541 319.7 541 274 541C228.3 541 182.7 541 137 541C91.3 541 45.7 541 22.8 541L0 541Z" fill="#022b54"></path></svg>